<?xml version="1.0" encoding="utf-8"?>
<!-- Generator: Adobe Illustrator 17.0.0, SVG Export Plug-In . SVG Version: 6.00 Build 0)  -->
<!DOCTYPE svg PUBLIC "-//W3C//DTD SVG 1.1//EN" "http://www.w3.org/Graphics/SVG/1.1/DTD/svg11.dtd">
<svg version="1.1" id="Calque_1" xmlns="http://www.w3.org/2000/svg" xmlns:xlink="http://www.w3.org/1999/xlink" x="0px" y="0px"
	 width="100px" height="100px" viewBox="0 0 100 100" enable-background="new 0 0 100 100" xml:space="preserve">
<g id="Calque_2">
	<path fill="#C5E296" d="M20.785,27.43L6.808,33.682L4.418,44.9l6.988,20.413c0,0,44.965,2.759,48.413,2.575
		c3.448-0.184,24.596-3.494,24.596-3.494l11.954-9.898l-1.103-6.832L74.668,36.441l-16.919-4.965L20.785,27.43z"/>
</g>
<g id="Your_Icon">
	<path fill="#1B2C02" d="M99.524,53.12c0.57-5.952-8.41-11.737-16.47-15.39c-9.156-4.15-21.025-7.584-32.981-9.855
		c-2.149-1.261-4.761-2.13-7.874-2.648c-3.931-0.657-7.479-0.408-10.585,0.474c-1.28-0.055-2.535-0.068-3.743-0.068
		c-12.485,0-20.686,3.015-24.01,8.465c-5.131,8.411-3.46,23.322,1.454,31.357c5.647,9.234,15.806,15.315,29.379,17.581
		c4.371,0.729,8.91,1.1,13.491,1.1c12.254,0,23.975-2.629,33.004-7.409C91.547,71.247,98.657,62.206,99.524,53.12z M95.394,53.047
		c-0.035,0.216-0.108,0.435-0.22,0.652c-1.652,3.24-11.592,6.321-28.636,6.321c-8.222,0-16.956-0.733-25.258-2.119
		c-12.141-2.025-21.788-5.167-27.895-9.084c-3.552-2.277-8.3-6.091-6.886-10.368c2.326-7.035,9.004-8.169,17.697-8.657
		c-3.145,2.8-6.294,6.168-5.284,10.205c0.841,3.367,7.145,7.219,18.357,9.091c11.215,1.87,18.171,0.139,20-3.034
		c2.668-4.629,0.828-8.792-1.684-12.748c9.429,2.168,18.46,5.096,25.727,8.39C92.278,46.666,95.75,50.915,95.394,53.047z"/>
</g>
<g id="Calque_3">
	<g>
		<g opacity="0.85">
			<path d="M44.197,26.01c0,0-8.183-2.065-16.172,3.062s-8.878,8.213-8.115,11.381s1.884,6.538,17.543,10.079
				s22.078,0.361,23.794-4.525C62.963,41.121,58.065,28.542,44.197,26.01z"/>
		</g>
		<g>
			
				<linearGradient id="SVGID_1_" gradientUnits="userSpaceOnUse" x1="133.2988" y1="-64.7614" x2="106.851" y2="-97.5212" gradientTransform="matrix(0.9988 0.0497 0.0497 -0.9988 -61.1157 -62.2893)">
				<stop  offset="0.5" style="stop-color:#746C30"/>
				<stop  offset="0.6095" style="stop-color:#6C652C"/>
				<stop  offset="1" style="stop-color:#555020"/>
			</linearGradient>
			<path fill="url(#SVGID_1_)" d="M45.197,24.01c0,0-8.183-2.065-16.172,3.062s-8.878,8.213-8.115,11.381s1.884,6.538,17.543,10.079
				s22.078,0.361,23.794-4.525C63.963,39.121,59.065,26.542,45.197,24.01z"/>
		</g>
	</g>
</g>
</svg>
